<mxfile host="app.diagrams.net" agent="Mozilla/5.0 (Windows NT 10.0; Win64; x64) AppleWebKit/537.36 (KHTML, like Gecko) Chrome/133.0.0.0 Safari/537.36" version="26.0.11">
  <diagram name="PÃ¡gina-1" id="_m3JafOKEVZ34VF1hiHr">
    <mxGraphModel dx="1075" dy="471" grid="1" gridSize="10" guides="1" tooltips="1" connect="1" arrows="1" fold="1" page="1" pageScale="1" pageWidth="827" pageHeight="1169" math="0" shadow="0">
      <root>
        <mxCell id="0" />
        <mxCell id="1" parent="0" />
        <mxCell id="FQDzhqa_Sa2Xz07wzHv1-1" value="&lt;span style=&quot;background-color: transparent; color: light-dark(rgb(0, 0, 0), rgb(255, 255, 255));&quot;&gt;&lt;font style=&quot;font-size: 18px;&quot; face=&quot;Tahoma&quot;&gt;&amp;nbsp;CalculadoraIMC&lt;br&gt;&lt;/font&gt;&amp;nbsp;&lt;/span&gt;" style="swimlane;fontStyle=1;align=center;verticalAlign=top;childLayout=stackLayout;horizontal=1;startSize=26;horizontalStack=0;resizeParent=1;resizeParentMax=0;resizeLast=0;collapsible=1;marginBottom=0;whiteSpace=wrap;html=1;" vertex="1" parent="1">
          <mxGeometry x="120" y="130" width="490" height="160" as="geometry" />
        </mxCell>
        <mxCell id="FQDzhqa_Sa2Xz07wzHv1-2" value="&lt;span style=&quot;background-color: transparent; color: light-dark(rgb(0, 0, 0), rgb(255, 255, 255));&quot;&gt;&lt;font style=&quot;font-size: 14px;&quot; face=&quot;Tahoma&quot;&gt;&lt;b&gt;- peso:&lt;span style=&quot;white-space: pre;&quot;&gt;&#x9;&lt;/span&gt;&lt;/b&gt; &lt;span style=&quot;white-space: pre;&quot;&gt;&#x9;&lt;/span&gt;&amp;nbsp;double&lt;/font&gt;&lt;/span&gt;&lt;div&gt;&lt;span style=&quot;background-color: transparent; color: light-dark(rgb(0, 0, 0), rgb(255, 255, 255));&quot;&gt;&lt;font style=&quot;font-size: 14px;&quot; face=&quot;Tahoma&quot;&gt;&lt;b&gt;- estatura&lt;/b&gt;:&lt;span style=&quot;white-space: pre;&quot;&gt;&#x9;&lt;/span&gt; double&amp;nbsp;&lt;/font&gt;&lt;/span&gt;&lt;/div&gt;" style="text;strokeColor=none;fillColor=none;align=left;verticalAlign=top;spacingLeft=4;spacingRight=4;overflow=hidden;rotatable=0;points=[[0,0.5],[1,0.5]];portConstraint=eastwest;whiteSpace=wrap;html=1;" vertex="1" parent="FQDzhqa_Sa2Xz07wzHv1-1">
          <mxGeometry y="26" width="490" height="44" as="geometry" />
        </mxCell>
        <mxCell id="FQDzhqa_Sa2Xz07wzHv1-3" value="" style="line;strokeWidth=1;fillColor=none;align=left;verticalAlign=middle;spacingTop=-1;spacingLeft=3;spacingRight=3;rotatable=0;labelPosition=right;points=[];portConstraint=eastwest;strokeColor=inherit;" vertex="1" parent="FQDzhqa_Sa2Xz07wzHv1-1">
          <mxGeometry y="70" width="490" height="8" as="geometry" />
        </mxCell>
        <mxCell id="FQDzhqa_Sa2Xz07wzHv1-4" value="&lt;pre&gt;&lt;font style=&quot;font-size: 14px;&quot; face=&quot;Tahoma&quot;&gt;&lt;b&gt;+ CalculadoraIMC&lt;/b&gt;(peso: double, estatura: double) &lt;br&gt;&lt;b&gt;+ calcularIMC&lt;/b&gt;(): double             &lt;br&gt;&lt;b&gt;+ clasificarIMC&lt;/b&gt;(imc: double): String&lt;/font&gt;&lt;/pre&gt;" style="text;strokeColor=none;fillColor=none;align=left;verticalAlign=top;spacingLeft=4;spacingRight=4;overflow=hidden;rotatable=0;points=[[0,0.5],[1,0.5]];portConstraint=eastwest;whiteSpace=wrap;html=1;" vertex="1" parent="FQDzhqa_Sa2Xz07wzHv1-1">
          <mxGeometry y="78" width="490" height="82" as="geometry" />
        </mxCell>
        <mxCell id="FQDzhqa_Sa2Xz07wzHv1-5" value="&lt;span style=&quot;background-color: transparent;&quot;&gt;&lt;font face=&quot;Tahoma&quot;&gt;&lt;span style=&quot;font-size: 18px;&quot;&gt;InterfazUsuario&lt;/span&gt;&lt;/font&gt;&lt;font color=&quot;rgba(0, 0, 0, 0)&quot;&gt;&amp;nbsp;&lt;/font&gt;&lt;/span&gt;" style="swimlane;fontStyle=1;align=center;verticalAlign=top;childLayout=stackLayout;horizontal=1;startSize=26;horizontalStack=0;resizeParent=1;resizeParentMax=0;resizeLast=0;collapsible=1;marginBottom=0;whiteSpace=wrap;html=1;" vertex="1" parent="1">
          <mxGeometry x="120" y="320" width="490" height="220" as="geometry" />
        </mxCell>
        <mxCell id="FQDzhqa_Sa2Xz07wzHv1-6" value="&lt;font face=&quot;Tahoma&quot;&gt;&lt;span style=&quot;font-size: 14px;&quot;&gt;&lt;b&gt;&amp;nbsp;- scanner: &lt;/b&gt;Scanner&lt;b&gt;&amp;nbsp;&lt;/b&gt;&lt;/span&gt;&lt;/font&gt;" style="text;strokeColor=none;fillColor=none;align=left;verticalAlign=top;spacingLeft=4;spacingRight=4;overflow=hidden;rotatable=0;points=[[0,0.5],[1,0.5]];portConstraint=eastwest;whiteSpace=wrap;html=1;" vertex="1" parent="FQDzhqa_Sa2Xz07wzHv1-5">
          <mxGeometry y="26" width="490" height="34" as="geometry" />
        </mxCell>
        <mxCell id="FQDzhqa_Sa2Xz07wzHv1-7" value="" style="line;strokeWidth=1;fillColor=none;align=left;verticalAlign=middle;spacingTop=-1;spacingLeft=3;spacingRight=3;rotatable=0;labelPosition=right;points=[];portConstraint=eastwest;strokeColor=inherit;" vertex="1" parent="FQDzhqa_Sa2Xz07wzHv1-5">
          <mxGeometry y="60" width="490" height="8" as="geometry" />
        </mxCell>
        <mxCell id="FQDzhqa_Sa2Xz07wzHv1-8" value="&lt;pre&gt;&lt;font face=&quot;Tahoma&quot;&gt;&lt;span style=&quot;font-size: 14px;&quot;&gt;&lt;b&gt;+ InterfazUsuario()                        &lt;br&gt;+ leerPeso(): &lt;/b&gt;double&lt;b&gt;                    &lt;br&gt;+ leerEstatura(): &lt;/b&gt;double&lt;b&gt;              &lt;br&gt;+ mostrarResultado&lt;/b&gt;(imc: double, clasificacion: String)&lt;b&gt;&lt;br&gt;+ mostrarError&lt;/b&gt;(mensaje: String)&lt;b&gt;           &lt;br&gt;+ cerrar() &lt;/b&gt;&lt;/span&gt;&lt;/font&gt;&lt;/pre&gt;" style="text;strokeColor=none;fillColor=none;align=left;verticalAlign=top;spacingLeft=4;spacingRight=4;overflow=hidden;rotatable=0;points=[[0,0.5],[1,0.5]];portConstraint=eastwest;whiteSpace=wrap;html=1;" vertex="1" parent="FQDzhqa_Sa2Xz07wzHv1-5">
          <mxGeometry y="68" width="490" height="152" as="geometry" />
        </mxCell>
      </root>
    </mxGraphModel>
  </diagram>
</mxfile>
